<mxfile host="app.diagrams.net" modified="2023-05-03T13:30:27.234Z" agent="Mozilla/5.0 (Windows NT 10.0; Win64; x64) AppleWebKit/537.36 (KHTML, like Gecko) Chrome/112.0.0.0 Safari/537.36" etag="D53HUqI8_jZC15CUi3BK" version="21.2.7" type="device">
  <diagram name="Page-1" id="rDroMqvgq4sp8sMrG8O2">
    <mxGraphModel dx="1022" dy="1538" grid="1" gridSize="10" guides="1" tooltips="1" connect="1" arrows="1" fold="1" page="1" pageScale="1" pageWidth="850" pageHeight="1100" math="0" shadow="0">
      <root>
        <mxCell id="0" />
        <mxCell id="1" parent="0" />
        <mxCell id="DVrZE9xDPVvh2_FHzCL8-2" value="positions" style="shape=umlFrame;whiteSpace=wrap;html=1;pointerEvents=0;fillColor=#dae8fc;strokeColor=#6c8ebf;strokeWidth=5;" parent="1" vertex="1">
          <mxGeometry x="353" y="-320" width="300" height="265" as="geometry" />
        </mxCell>
        <mxCell id="DVrZE9xDPVvh2_FHzCL8-3" value="&lt;i&gt;Ground&lt;/i&gt;" style="html=1;whiteSpace=wrap;" parent="1" vertex="1">
          <mxGeometry x="453" y="-185" width="110" height="50" as="geometry" />
        </mxCell>
        <mxCell id="DVrZE9xDPVvh2_FHzCL8-4" value="environments" style="shape=umlFrame;whiteSpace=wrap;html=1;pointerEvents=0;width=85;height=30;fillColor=#dae8fc;strokeColor=#6c8ebf;strokeWidth=5;" parent="1" vertex="1">
          <mxGeometry x="258" y="800" width="500" height="400" as="geometry" />
        </mxCell>
        <mxCell id="DVrZE9xDPVvh2_FHzCL8-19" style="edgeStyle=orthogonalEdgeStyle;rounded=0;orthogonalLoop=1;jettySize=auto;html=1;exitX=0.5;exitY=0;exitDx=0;exitDy=0;entryX=0.5;entryY=1;entryDx=0;entryDy=0;endArrow=block;endFill=0;" parent="1" source="DVrZE9xDPVvh2_FHzCL8-6" target="DVrZE9xDPVvh2_FHzCL8-3" edge="1">
          <mxGeometry relative="1" as="geometry" />
        </mxCell>
        <mxCell id="nA44q0fjmFgXWdIEp-3O-10" style="edgeStyle=orthogonalEdgeStyle;rounded=0;orthogonalLoop=1;jettySize=auto;html=1;exitX=0;exitY=0.5;exitDx=0;exitDy=0;entryX=0;entryY=0.5;entryDx=0;entryDy=0;dashed=1;endArrow=open;endFill=0;" parent="1" source="DVrZE9xDPVvh2_FHzCL8-6" target="nA44q0fjmFgXWdIEp-3O-5" edge="1">
          <mxGeometry relative="1" as="geometry">
            <Array as="points">
              <mxPoint x="420" y="895" />
              <mxPoint x="420" y="-275" />
            </Array>
          </mxGeometry>
        </mxCell>
        <mxCell id="rV41eUEQcJ1NYXQhh66D-15" style="edgeStyle=orthogonalEdgeStyle;rounded=0;orthogonalLoop=1;jettySize=auto;html=1;exitX=1;exitY=0.5;exitDx=0;exitDy=0;entryX=0;entryY=0.5;entryDx=0;entryDy=0;dashed=1;endArrow=open;endFill=0;" parent="1" source="DVrZE9xDPVvh2_FHzCL8-6" target="DVrZE9xDPVvh2_FHzCL8-41" edge="1">
          <mxGeometry relative="1" as="geometry" />
        </mxCell>
        <mxCell id="DVrZE9xDPVvh2_FHzCL8-6" value="&lt;i&gt;Spawner&lt;/i&gt;" style="html=1;whiteSpace=wrap;" parent="1" vertex="1">
          <mxGeometry x="453" y="870" width="110" height="50" as="geometry" />
        </mxCell>
        <mxCell id="DVrZE9xDPVvh2_FHzCL8-13" style="edgeStyle=orthogonalEdgeStyle;rounded=0;orthogonalLoop=1;jettySize=auto;html=1;exitX=0.5;exitY=0;exitDx=0;exitDy=0;entryX=0.5;entryY=1;entryDx=0;entryDy=0;endArrow=block;endFill=0;" parent="1" source="DVrZE9xDPVvh2_FHzCL8-7" target="DVrZE9xDPVvh2_FHzCL8-6" edge="1">
          <mxGeometry relative="1" as="geometry" />
        </mxCell>
        <mxCell id="rV41eUEQcJ1NYXQhh66D-22" style="edgeStyle=orthogonalEdgeStyle;rounded=0;orthogonalLoop=1;jettySize=auto;html=1;exitX=0.5;exitY=1;exitDx=0;exitDy=0;entryX=0.5;entryY=1;entryDx=0;entryDy=0;dashed=1;endArrow=open;endFill=0;" parent="1" source="DVrZE9xDPVvh2_FHzCL8-7" target="DVrZE9xDPVvh2_FHzCL8-27" edge="1">
          <mxGeometry relative="1" as="geometry">
            <Array as="points">
              <mxPoint x="508" y="1280" />
              <mxPoint x="1243" y="1280" />
            </Array>
          </mxGeometry>
        </mxCell>
        <mxCell id="DVrZE9xDPVvh2_FHzCL8-7" value="GustOfWind" style="html=1;whiteSpace=wrap;" parent="1" vertex="1">
          <mxGeometry x="453" y="1040" width="110" height="50" as="geometry" />
        </mxCell>
        <mxCell id="DVrZE9xDPVvh2_FHzCL8-14" style="edgeStyle=orthogonalEdgeStyle;rounded=0;orthogonalLoop=1;jettySize=auto;html=1;exitX=0.5;exitY=0;exitDx=0;exitDy=0;entryX=0.5;entryY=1;entryDx=0;entryDy=0;endArrow=block;endFill=0;" parent="1" source="DVrZE9xDPVvh2_FHzCL8-8" target="DVrZE9xDPVvh2_FHzCL8-6" edge="1">
          <mxGeometry relative="1" as="geometry" />
        </mxCell>
        <mxCell id="rV41eUEQcJ1NYXQhh66D-21" style="edgeStyle=orthogonalEdgeStyle;rounded=0;orthogonalLoop=1;jettySize=auto;html=1;exitX=0.5;exitY=1;exitDx=0;exitDy=0;entryX=0.5;entryY=1;entryDx=0;entryDy=0;dashed=1;endArrow=open;endFill=0;" parent="1" source="DVrZE9xDPVvh2_FHzCL8-8" target="DVrZE9xDPVvh2_FHzCL8-25" edge="1">
          <mxGeometry relative="1" as="geometry">
            <Array as="points">
              <mxPoint x="658" y="1240" />
              <mxPoint x="1393" y="1240" />
            </Array>
          </mxGeometry>
        </mxCell>
        <mxCell id="DVrZE9xDPVvh2_FHzCL8-8" value="PuddleOfWater" style="html=1;whiteSpace=wrap;" parent="1" vertex="1">
          <mxGeometry x="603" y="1040" width="110" height="50" as="geometry" />
        </mxCell>
        <mxCell id="DVrZE9xDPVvh2_FHzCL8-12" style="edgeStyle=orthogonalEdgeStyle;rounded=0;orthogonalLoop=1;jettySize=auto;html=1;exitX=0.5;exitY=0;exitDx=0;exitDy=0;entryX=0.5;entryY=1;entryDx=0;entryDy=0;endArrow=block;endFill=0;" parent="1" source="DVrZE9xDPVvh2_FHzCL8-9" target="DVrZE9xDPVvh2_FHzCL8-6" edge="1">
          <mxGeometry relative="1" as="geometry" />
        </mxCell>
        <mxCell id="rV41eUEQcJ1NYXQhh66D-23" style="edgeStyle=orthogonalEdgeStyle;rounded=0;orthogonalLoop=1;jettySize=auto;html=1;exitX=0.5;exitY=1;exitDx=0;exitDy=0;entryX=0.5;entryY=1;entryDx=0;entryDy=0;dashed=1;endArrow=open;endFill=0;" parent="1" source="DVrZE9xDPVvh2_FHzCL8-9" target="DVrZE9xDPVvh2_FHzCL8-26" edge="1">
          <mxGeometry relative="1" as="geometry">
            <Array as="points">
              <mxPoint x="358" y="1320" />
              <mxPoint x="1590" y="1320" />
            </Array>
          </mxGeometry>
        </mxCell>
        <mxCell id="DVrZE9xDPVvh2_FHzCL8-9" value="Graveyard" style="html=1;whiteSpace=wrap;" parent="1" vertex="1">
          <mxGeometry x="303" y="1040" width="110" height="50" as="geometry" />
        </mxCell>
        <mxCell id="DVrZE9xDPVvh2_FHzCL8-21" value="actors" style="shape=umlFrame;whiteSpace=wrap;html=1;pointerEvents=0;fillColor=#dae8fc;strokeColor=#6c8ebf;strokeWidth=5;" parent="1" vertex="1">
          <mxGeometry x="1173" y="-255" width="300" height="200" as="geometry" />
        </mxCell>
        <mxCell id="DVrZE9xDPVvh2_FHzCL8-22" value="&lt;i&gt;Actor&lt;/i&gt;" style="html=1;whiteSpace=wrap;" parent="1" vertex="1">
          <mxGeometry x="1268" y="-185" width="110" height="50" as="geometry" />
        </mxCell>
        <mxCell id="DVrZE9xDPVvh2_FHzCL8-23" value="enemies" style="shape=umlFrame;whiteSpace=wrap;html=1;pointerEvents=0;fillColor=#dae8fc;strokeColor=#6c8ebf;strokeWidth=5;" parent="1" vertex="1">
          <mxGeometry x="880" y="720" width="838" height="480" as="geometry" />
        </mxCell>
        <mxCell id="DVrZE9xDPVvh2_FHzCL8-39" style="edgeStyle=orthogonalEdgeStyle;rounded=0;orthogonalLoop=1;jettySize=auto;html=1;exitX=0.5;exitY=0;exitDx=0;exitDy=0;entryX=0.5;entryY=1;entryDx=0;entryDy=0;endArrow=block;endFill=0;" parent="1" source="DVrZE9xDPVvh2_FHzCL8-24" target="DVrZE9xDPVvh2_FHzCL8-22" edge="1">
          <mxGeometry relative="1" as="geometry">
            <mxPoint x="1323" y="750" as="sourcePoint" />
          </mxGeometry>
        </mxCell>
        <mxCell id="DVrZE9xDPVvh2_FHzCL8-74" style="edgeStyle=orthogonalEdgeStyle;rounded=0;orthogonalLoop=1;jettySize=auto;html=1;entryX=0;entryY=0.5;entryDx=0;entryDy=0;endArrow=open;endFill=0;exitX=1;exitY=0.5;exitDx=0;exitDy=0;" parent="1" source="DVrZE9xDPVvh2_FHzCL8-24" target="DVrZE9xDPVvh2_FHzCL8-62" edge="1">
          <mxGeometry relative="1" as="geometry">
            <mxPoint x="1351" y="860" as="sourcePoint" />
            <Array as="points">
              <mxPoint x="1400" y="895" />
              <mxPoint x="1400" y="375" />
            </Array>
          </mxGeometry>
        </mxCell>
        <mxCell id="DVrZE9xDPVvh2_FHzCL8-75" value="Has" style="edgeLabel;html=1;align=center;verticalAlign=middle;resizable=0;points=[];" parent="DVrZE9xDPVvh2_FHzCL8-74" vertex="1" connectable="0">
          <mxGeometry x="0.1846" y="2" relative="1" as="geometry">
            <mxPoint x="2" y="2" as="offset" />
          </mxGeometry>
        </mxCell>
        <mxCell id="DVrZE9xDPVvh2_FHzCL8-76" value="1" style="edgeLabel;html=1;align=center;verticalAlign=middle;resizable=0;points=[];" parent="DVrZE9xDPVvh2_FHzCL8-74" vertex="1" connectable="0">
          <mxGeometry x="-0.9545" relative="1" as="geometry">
            <mxPoint x="10" y="9" as="offset" />
          </mxGeometry>
        </mxCell>
        <mxCell id="DVrZE9xDPVvh2_FHzCL8-77" value="1..4" style="edgeLabel;html=1;align=center;verticalAlign=middle;resizable=0;points=[];" parent="DVrZE9xDPVvh2_FHzCL8-74" vertex="1" connectable="0">
          <mxGeometry x="0.9307" relative="1" as="geometry">
            <mxPoint x="14" y="-15" as="offset" />
          </mxGeometry>
        </mxCell>
        <mxCell id="JSlfss8V1tPt0fPpGnAS-11" style="edgeStyle=orthogonalEdgeStyle;rounded=0;orthogonalLoop=1;jettySize=auto;html=1;exitX=0;exitY=0.25;exitDx=0;exitDy=0;entryX=0.5;entryY=1;entryDx=0;entryDy=0;endArrow=open;endFill=0;" parent="1" source="DVrZE9xDPVvh2_FHzCL8-24" target="DVrZE9xDPVvh2_FHzCL8-150" edge="1">
          <mxGeometry relative="1" as="geometry" />
        </mxCell>
        <mxCell id="JSlfss8V1tPt0fPpGnAS-13" value="Has" style="edgeLabel;html=1;align=center;verticalAlign=middle;resizable=0;points=[];" parent="JSlfss8V1tPt0fPpGnAS-11" vertex="1" connectable="0">
          <mxGeometry x="0.2867" y="-1" relative="1" as="geometry">
            <mxPoint x="-4" as="offset" />
          </mxGeometry>
        </mxCell>
        <mxCell id="JSlfss8V1tPt0fPpGnAS-15" value="1" style="edgeLabel;html=1;align=center;verticalAlign=middle;resizable=0;points=[];" parent="JSlfss8V1tPt0fPpGnAS-11" vertex="1" connectable="0">
          <mxGeometry x="-0.9431" y="-2" relative="1" as="geometry">
            <mxPoint x="9" y="-10" as="offset" />
          </mxGeometry>
        </mxCell>
        <mxCell id="JSlfss8V1tPt0fPpGnAS-18" value="1" style="edgeLabel;html=1;align=center;verticalAlign=middle;resizable=0;points=[];" parent="JSlfss8V1tPt0fPpGnAS-11" vertex="1" connectable="0">
          <mxGeometry x="0.9378" y="-3" relative="1" as="geometry">
            <mxPoint x="14" y="-8" as="offset" />
          </mxGeometry>
        </mxCell>
        <mxCell id="rV41eUEQcJ1NYXQhh66D-19" style="edgeStyle=orthogonalEdgeStyle;rounded=0;orthogonalLoop=1;jettySize=auto;html=1;exitX=0.75;exitY=0;exitDx=0;exitDy=0;entryX=0.25;entryY=0;entryDx=0;entryDy=0;dashed=1;endArrow=open;endFill=0;" parent="1" source="DVrZE9xDPVvh2_FHzCL8-24" target="rV41eUEQcJ1NYXQhh66D-1" edge="1">
          <mxGeometry relative="1" as="geometry">
            <Array as="points">
              <mxPoint x="1350" y="800" />
              <mxPoint x="2357" y="800" />
            </Array>
          </mxGeometry>
        </mxCell>
        <mxCell id="DVrZE9xDPVvh2_FHzCL8-24" value="&lt;i&gt;Enemy&lt;/i&gt;" style="html=1;whiteSpace=wrap;" parent="1" vertex="1">
          <mxGeometry x="1268" y="870" width="110" height="50" as="geometry" />
        </mxCell>
        <mxCell id="DVrZE9xDPVvh2_FHzCL8-33" style="edgeStyle=orthogonalEdgeStyle;rounded=0;orthogonalLoop=1;jettySize=auto;html=1;exitX=0.5;exitY=0;exitDx=0;exitDy=0;endArrow=block;endFill=0;" parent="1" source="DVrZE9xDPVvh2_FHzCL8-25" target="DVrZE9xDPVvh2_FHzCL8-24" edge="1">
          <mxGeometry relative="1" as="geometry" />
        </mxCell>
        <mxCell id="rV41eUEQcJ1NYXQhh66D-8" style="edgeStyle=orthogonalEdgeStyle;rounded=0;orthogonalLoop=1;jettySize=auto;html=1;exitX=1;exitY=0.25;exitDx=0;exitDy=0;entryX=0;entryY=0.5;entryDx=0;entryDy=0;endArrow=block;endFill=0;dashed=1;" parent="1" source="DVrZE9xDPVvh2_FHzCL8-25" target="rV41eUEQcJ1NYXQhh66D-2" edge="1">
          <mxGeometry relative="1" as="geometry" />
        </mxCell>
        <mxCell id="rV41eUEQcJ1NYXQhh66D-25" style="edgeStyle=orthogonalEdgeStyle;rounded=0;orthogonalLoop=1;jettySize=auto;html=1;exitX=0.75;exitY=1;exitDx=0;exitDy=0;entryX=1;entryY=0.5;entryDx=0;entryDy=0;dashed=1;endArrow=open;endFill=0;" parent="1" source="DVrZE9xDPVvh2_FHzCL8-25" target="DVrZE9xDPVvh2_FHzCL8-125" edge="1">
          <mxGeometry relative="1" as="geometry">
            <Array as="points">
              <mxPoint x="1420" y="1480" />
              <mxPoint x="3760" y="1480" />
              <mxPoint x="3760" y="863" />
            </Array>
          </mxGeometry>
        </mxCell>
        <mxCell id="DVrZE9xDPVvh2_FHzCL8-25" value="GiantCrab" style="html=1;whiteSpace=wrap;" parent="1" vertex="1">
          <mxGeometry x="1338" y="1040" width="110" height="50" as="geometry" />
        </mxCell>
        <mxCell id="DVrZE9xDPVvh2_FHzCL8-34" style="edgeStyle=orthogonalEdgeStyle;rounded=0;orthogonalLoop=1;jettySize=auto;html=1;exitX=0.5;exitY=0;exitDx=0;exitDy=0;entryX=0.5;entryY=1;entryDx=0;entryDy=0;endArrow=block;endFill=0;" parent="1" source="DVrZE9xDPVvh2_FHzCL8-26" target="DVrZE9xDPVvh2_FHzCL8-24" edge="1">
          <mxGeometry relative="1" as="geometry" />
        </mxCell>
        <mxCell id="nA44q0fjmFgXWdIEp-3O-1" style="edgeStyle=orthogonalEdgeStyle;rounded=0;orthogonalLoop=1;jettySize=auto;html=1;endArrow=open;endFill=0;exitX=0.75;exitY=1;exitDx=0;exitDy=0;entryX=1;entryY=0.5;entryDx=0;entryDy=0;" parent="1" source="DVrZE9xDPVvh2_FHzCL8-26" target="GWkKmIc5PLOBVZ-B5JVU-1" edge="1">
          <mxGeometry relative="1" as="geometry">
            <Array as="points">
              <mxPoint x="1630" y="1440" />
              <mxPoint x="3550" y="1440" />
              <mxPoint x="3550" y="863" />
            </Array>
          </mxGeometry>
        </mxCell>
        <mxCell id="nA44q0fjmFgXWdIEp-3O-2" value="Has" style="edgeLabel;html=1;align=center;verticalAlign=middle;resizable=0;points=[];" parent="nA44q0fjmFgXWdIEp-3O-1" vertex="1" connectable="0">
          <mxGeometry x="-0.5619" y="1" relative="1" as="geometry">
            <mxPoint x="-118" y="1" as="offset" />
          </mxGeometry>
        </mxCell>
        <mxCell id="nA44q0fjmFgXWdIEp-3O-3" value="1" style="edgeLabel;html=1;align=center;verticalAlign=middle;resizable=0;points=[];" parent="nA44q0fjmFgXWdIEp-3O-1" vertex="1" connectable="0">
          <mxGeometry x="-0.993" y="2" relative="1" as="geometry">
            <mxPoint x="10" as="offset" />
          </mxGeometry>
        </mxCell>
        <mxCell id="nA44q0fjmFgXWdIEp-3O-4" value="1" style="edgeLabel;html=1;align=center;verticalAlign=middle;resizable=0;points=[];" parent="nA44q0fjmFgXWdIEp-3O-1" vertex="1" connectable="0">
          <mxGeometry x="0.968" relative="1" as="geometry">
            <mxPoint x="-31" y="-13" as="offset" />
          </mxGeometry>
        </mxCell>
        <mxCell id="rV41eUEQcJ1NYXQhh66D-10" style="edgeStyle=orthogonalEdgeStyle;rounded=0;orthogonalLoop=1;jettySize=auto;html=1;exitX=0.75;exitY=0;exitDx=0;exitDy=0;entryX=1;entryY=0.5;entryDx=0;entryDy=0;endArrow=block;endFill=0;dashed=1;" parent="1" source="DVrZE9xDPVvh2_FHzCL8-26" target="rV41eUEQcJ1NYXQhh66D-2" edge="1">
          <mxGeometry relative="1" as="geometry">
            <Array as="points">
              <mxPoint x="1650" y="1040" />
              <mxPoint x="1650" y="895" />
            </Array>
          </mxGeometry>
        </mxCell>
        <mxCell id="rV41eUEQcJ1NYXQhh66D-16" style="edgeStyle=orthogonalEdgeStyle;rounded=0;orthogonalLoop=1;jettySize=auto;html=1;exitX=0.25;exitY=1;exitDx=0;exitDy=0;entryX=0.25;entryY=1;entryDx=0;entryDy=0;dashed=1;endArrow=open;endFill=0;" parent="1" source="DVrZE9xDPVvh2_FHzCL8-26" target="DVrZE9xDPVvh2_FHzCL8-41" edge="1">
          <mxGeometry relative="1" as="geometry">
            <Array as="points">
              <mxPoint x="1550" y="1120" />
              <mxPoint x="976" y="1120" />
            </Array>
          </mxGeometry>
        </mxCell>
        <mxCell id="DVrZE9xDPVvh2_FHzCL8-26" value="HeavySkeletalSwordsman" style="html=1;whiteSpace=wrap;" parent="1" vertex="1">
          <mxGeometry x="1510" y="1040" width="160" height="50" as="geometry" />
        </mxCell>
        <mxCell id="DVrZE9xDPVvh2_FHzCL8-32" style="edgeStyle=orthogonalEdgeStyle;rounded=0;orthogonalLoop=1;jettySize=auto;html=1;exitX=0.5;exitY=0;exitDx=0;exitDy=0;endArrow=block;endFill=0;" parent="1" source="DVrZE9xDPVvh2_FHzCL8-27" target="DVrZE9xDPVvh2_FHzCL8-24" edge="1">
          <mxGeometry relative="1" as="geometry" />
        </mxCell>
        <mxCell id="DVrZE9xDPVvh2_FHzCL8-27" value="LoneWolf" style="html=1;whiteSpace=wrap;" parent="1" vertex="1">
          <mxGeometry x="1188" y="1040" width="110" height="50" as="geometry" />
        </mxCell>
        <mxCell id="DVrZE9xDPVvh2_FHzCL8-31" style="edgeStyle=orthogonalEdgeStyle;rounded=0;orthogonalLoop=1;jettySize=auto;html=1;exitX=0.5;exitY=0;exitDx=0;exitDy=0;entryX=0.5;entryY=1;entryDx=0;entryDy=0;endArrow=block;endFill=0;" parent="1" source="DVrZE9xDPVvh2_FHzCL8-28" target="DVrZE9xDPVvh2_FHzCL8-24" edge="1">
          <mxGeometry relative="1" as="geometry" />
        </mxCell>
        <mxCell id="DVrZE9xDPVvh2_FHzCL8-42" style="edgeStyle=orthogonalEdgeStyle;rounded=0;orthogonalLoop=1;jettySize=auto;html=1;exitX=0;exitY=0.5;exitDx=0;exitDy=0;dashed=1;endArrow=open;endFill=0;" parent="1" source="DVrZE9xDPVvh2_FHzCL8-28" target="DVrZE9xDPVvh2_FHzCL8-41" edge="1">
          <mxGeometry relative="1" as="geometry" />
        </mxCell>
        <mxCell id="DVrZE9xDPVvh2_FHzCL8-28" value="PileOfBones" style="html=1;whiteSpace=wrap;" parent="1" vertex="1">
          <mxGeometry x="1038" y="1040" width="110" height="50" as="geometry" />
        </mxCell>
        <mxCell id="DVrZE9xDPVvh2_FHzCL8-44" style="edgeStyle=orthogonalEdgeStyle;rounded=0;orthogonalLoop=1;jettySize=auto;html=1;dashed=1;endArrow=open;endFill=0;exitX=1;exitY=0.75;exitDx=0;exitDy=0;entryX=0;entryY=0.75;entryDx=0;entryDy=0;" parent="1" source="DVrZE9xDPVvh2_FHzCL8-41" target="DVrZE9xDPVvh2_FHzCL8-24" edge="1">
          <mxGeometry relative="1" as="geometry">
            <Array as="points">
              <mxPoint x="1220" y="908" />
              <mxPoint x="1220" y="908" />
            </Array>
            <mxPoint x="1090" y="895" as="sourcePoint" />
            <mxPoint x="1250" y="900" as="targetPoint" />
          </mxGeometry>
        </mxCell>
        <mxCell id="DVrZE9xDPVvh2_FHzCL8-41" value="EnemyFactory" style="html=1;whiteSpace=wrap;" parent="1" vertex="1">
          <mxGeometry x="948" y="870" width="110" height="50" as="geometry" />
        </mxCell>
        <mxCell id="DVrZE9xDPVvh2_FHzCL8-54" value="actions" style="shape=umlFrame;whiteSpace=wrap;html=1;pointerEvents=0;fillColor=#dae8fc;strokeColor=#6c8ebf;strokeWidth=5;" parent="1" vertex="1">
          <mxGeometry x="2349" y="-255" width="300" height="200" as="geometry" />
        </mxCell>
        <mxCell id="DVrZE9xDPVvh2_FHzCL8-55" value="actions" style="shape=umlFrame;whiteSpace=wrap;html=1;pointerEvents=0;width=81;height=30;fillColor=#dae8fc;strokeColor=#6c8ebf;strokeWidth=5;" parent="1" vertex="1">
          <mxGeometry x="1879" y="740" width="1241" height="540" as="geometry" />
        </mxCell>
        <mxCell id="DVrZE9xDPVvh2_FHzCL8-56" value="&lt;i&gt;Action&lt;/i&gt;" style="html=1;whiteSpace=wrap;" parent="1" vertex="1">
          <mxGeometry x="2444" y="-185" width="110" height="50" as="geometry" />
        </mxCell>
        <mxCell id="DVrZE9xDPVvh2_FHzCL8-57" value="behaviours" style="shape=umlFrame;whiteSpace=wrap;html=1;pointerEvents=0;width=70;height=30;fillColor=#dae8fc;strokeColor=#6c8ebf;strokeWidth=5;" parent="1" vertex="1">
          <mxGeometry x="1440" y="280" width="720" height="360" as="geometry" />
        </mxCell>
        <mxCell id="DVrZE9xDPVvh2_FHzCL8-64" style="edgeStyle=orthogonalEdgeStyle;rounded=0;orthogonalLoop=1;jettySize=auto;html=1;exitX=0.5;exitY=0;exitDx=0;exitDy=0;dashed=1;endArrow=block;endFill=0;" parent="1" source="DVrZE9xDPVvh2_FHzCL8-58" edge="1">
          <mxGeometry relative="1" as="geometry">
            <mxPoint x="1800" y="400" as="targetPoint" />
          </mxGeometry>
        </mxCell>
        <mxCell id="DVrZE9xDPVvh2_FHzCL8-58" value="AttackBehaviour" style="html=1;whiteSpace=wrap;" parent="1" vertex="1">
          <mxGeometry x="1670" y="519" width="110" height="50" as="geometry" />
        </mxCell>
        <mxCell id="DVrZE9xDPVvh2_FHzCL8-65" style="edgeStyle=orthogonalEdgeStyle;rounded=0;orthogonalLoop=1;jettySize=auto;html=1;exitX=0.5;exitY=0;exitDx=0;exitDy=0;entryX=0.5;entryY=1;entryDx=0;entryDy=0;dashed=1;endArrow=block;endFill=0;" parent="1" source="DVrZE9xDPVvh2_FHzCL8-59" target="DVrZE9xDPVvh2_FHzCL8-62" edge="1">
          <mxGeometry relative="1" as="geometry" />
        </mxCell>
        <mxCell id="DVrZE9xDPVvh2_FHzCL8-59" value="FollowBehaviour" style="html=1;whiteSpace=wrap;" parent="1" vertex="1">
          <mxGeometry x="1820" y="519" width="110" height="50" as="geometry" />
        </mxCell>
        <mxCell id="DVrZE9xDPVvh2_FHzCL8-66" style="edgeStyle=orthogonalEdgeStyle;rounded=0;orthogonalLoop=1;jettySize=auto;html=1;exitX=0.5;exitY=0;exitDx=0;exitDy=0;entryX=0.5;entryY=1;entryDx=0;entryDy=0;dashed=1;endArrow=block;endFill=0;" parent="1" source="DVrZE9xDPVvh2_FHzCL8-60" target="DVrZE9xDPVvh2_FHzCL8-62" edge="1">
          <mxGeometry relative="1" as="geometry" />
        </mxCell>
        <mxCell id="DVrZE9xDPVvh2_FHzCL8-60" value="WanderBehaviour" style="html=1;whiteSpace=wrap;" parent="1" vertex="1">
          <mxGeometry x="1970" y="519" width="110" height="50" as="geometry" />
        </mxCell>
        <mxCell id="DVrZE9xDPVvh2_FHzCL8-63" style="edgeStyle=orthogonalEdgeStyle;rounded=0;orthogonalLoop=1;jettySize=auto;html=1;exitX=0.5;exitY=0;exitDx=0;exitDy=0;entryX=0.5;entryY=1;entryDx=0;entryDy=0;dashed=1;endArrow=block;endFill=0;" parent="1" source="DVrZE9xDPVvh2_FHzCL8-61" target="DVrZE9xDPVvh2_FHzCL8-62" edge="1">
          <mxGeometry relative="1" as="geometry" />
        </mxCell>
        <mxCell id="rV41eUEQcJ1NYXQhh66D-11" style="edgeStyle=orthogonalEdgeStyle;rounded=0;orthogonalLoop=1;jettySize=auto;html=1;exitX=0.5;exitY=1;exitDx=0;exitDy=0;entryX=0.5;entryY=0;entryDx=0;entryDy=0;endArrow=open;endFill=0;" parent="1" source="DVrZE9xDPVvh2_FHzCL8-61" target="rV41eUEQcJ1NYXQhh66D-2" edge="1">
          <mxGeometry relative="1" as="geometry" />
        </mxCell>
        <mxCell id="rV41eUEQcJ1NYXQhh66D-12" value="Has" style="edgeLabel;html=1;align=center;verticalAlign=middle;resizable=0;points=[];" parent="rV41eUEQcJ1NYXQhh66D-11" vertex="1" connectable="0">
          <mxGeometry x="-0.2691" y="1" relative="1" as="geometry">
            <mxPoint as="offset" />
          </mxGeometry>
        </mxCell>
        <mxCell id="rV41eUEQcJ1NYXQhh66D-13" value="1" style="edgeLabel;html=1;align=center;verticalAlign=middle;resizable=0;points=[];" parent="rV41eUEQcJ1NYXQhh66D-11" vertex="1" connectable="0">
          <mxGeometry x="-0.907" y="1" relative="1" as="geometry">
            <mxPoint x="14" y="-3" as="offset" />
          </mxGeometry>
        </mxCell>
        <mxCell id="rV41eUEQcJ1NYXQhh66D-14" value="1" style="edgeLabel;html=1;align=center;verticalAlign=middle;resizable=0;points=[];" parent="rV41eUEQcJ1NYXQhh66D-11" vertex="1" connectable="0">
          <mxGeometry x="0.8538" y="1" relative="1" as="geometry">
            <mxPoint x="14" as="offset" />
          </mxGeometry>
        </mxCell>
        <mxCell id="DVrZE9xDPVvh2_FHzCL8-61" value="AoEBehaviour" style="html=1;whiteSpace=wrap;" parent="1" vertex="1">
          <mxGeometry x="1520" y="519" width="110" height="50" as="geometry" />
        </mxCell>
        <mxCell id="DVrZE9xDPVvh2_FHzCL8-78" style="edgeStyle=orthogonalEdgeStyle;rounded=0;orthogonalLoop=1;jettySize=auto;html=1;dashed=1;endArrow=open;endFill=0;exitX=1;exitY=0.5;exitDx=0;exitDy=0;entryX=0;entryY=0.5;entryDx=0;entryDy=0;" parent="1" source="DVrZE9xDPVvh2_FHzCL8-62" target="DVrZE9xDPVvh2_FHzCL8-56" edge="1">
          <mxGeometry relative="1" as="geometry">
            <mxPoint x="2444" y="-160" as="targetPoint" />
            <Array as="points">
              <mxPoint x="2080" y="375" />
              <mxPoint x="2080" y="-160" />
            </Array>
          </mxGeometry>
        </mxCell>
        <mxCell id="DVrZE9xDPVvh2_FHzCL8-62" value="&lt;i&gt;&amp;lt;&amp;lt;Interface&amp;gt;&amp;gt;&lt;br&gt;Behaviour&lt;br&gt;&lt;/i&gt;" style="html=1;whiteSpace=wrap;" parent="1" vertex="1">
          <mxGeometry x="1745" y="350" width="110" height="50" as="geometry" />
        </mxCell>
        <mxCell id="DVrZE9xDPVvh2_FHzCL8-82" value="skills" style="shape=umlFrame;whiteSpace=wrap;html=1;pointerEvents=0;width=71;height=25;fillColor=#dae8fc;strokeColor=#6c8ebf;strokeWidth=5;" parent="1" vertex="1">
          <mxGeometry x="2640" y="960" width="360" height="280" as="geometry" />
        </mxCell>
        <mxCell id="DVrZE9xDPVvh2_FHzCL8-92" style="edgeStyle=orthogonalEdgeStyle;rounded=0;orthogonalLoop=1;jettySize=auto;html=1;exitX=0.5;exitY=0;exitDx=0;exitDy=0;entryX=0.5;entryY=1;entryDx=0;entryDy=0;endArrow=block;endFill=0;" parent="1" source="DVrZE9xDPVvh2_FHzCL8-84" target="DVrZE9xDPVvh2_FHzCL8-56" edge="1">
          <mxGeometry relative="1" as="geometry">
            <mxPoint x="2640" y="177.3333740234375" as="targetPoint" />
            <Array as="points">
              <mxPoint x="2820" y="680" />
              <mxPoint x="2499" y="680" />
            </Array>
          </mxGeometry>
        </mxCell>
        <mxCell id="DVrZE9xDPVvh2_FHzCL8-84" value="&lt;i&gt;AreaAttack&lt;/i&gt;" style="html=1;whiteSpace=wrap;" parent="1" vertex="1">
          <mxGeometry x="2764.5" y="1000" width="110" height="50" as="geometry" />
        </mxCell>
        <mxCell id="DVrZE9xDPVvh2_FHzCL8-91" style="edgeStyle=orthogonalEdgeStyle;rounded=0;orthogonalLoop=1;jettySize=auto;html=1;exitX=0.5;exitY=0;exitDx=0;exitDy=0;entryX=0.5;entryY=1;entryDx=0;entryDy=0;endArrow=block;endFill=0;" parent="1" source="DVrZE9xDPVvh2_FHzCL8-86" target="DVrZE9xDPVvh2_FHzCL8-56" edge="1">
          <mxGeometry relative="1" as="geometry">
            <Array as="points">
              <mxPoint x="2085" y="680" />
              <mxPoint x="2499" y="680" />
            </Array>
          </mxGeometry>
        </mxCell>
        <mxCell id="DVrZE9xDPVvh2_FHzCL8-86" value="DeathAction" style="html=1;whiteSpace=wrap;" parent="1" vertex="1">
          <mxGeometry x="2030" y="1050" width="110" height="50" as="geometry" />
        </mxCell>
        <mxCell id="DVrZE9xDPVvh2_FHzCL8-93" style="edgeStyle=orthogonalEdgeStyle;rounded=0;orthogonalLoop=1;jettySize=auto;html=1;exitX=0.5;exitY=0;exitDx=0;exitDy=0;entryX=0.5;entryY=1;entryDx=0;entryDy=0;endArrow=block;endFill=0;" parent="1" source="DVrZE9xDPVvh2_FHzCL8-90" target="DVrZE9xDPVvh2_FHzCL8-56" edge="1">
          <mxGeometry relative="1" as="geometry">
            <mxPoint x="2660" y="130" as="targetPoint" />
            <Array as="points">
              <mxPoint x="2245" y="680" />
              <mxPoint x="2499" y="680" />
            </Array>
          </mxGeometry>
        </mxCell>
        <mxCell id="rV41eUEQcJ1NYXQhh66D-18" style="edgeStyle=orthogonalEdgeStyle;rounded=0;orthogonalLoop=1;jettySize=auto;html=1;exitX=0;exitY=0.5;exitDx=0;exitDy=0;entryX=1;entryY=0.5;entryDx=0;entryDy=0;dashed=1;endArrow=open;endFill=0;" parent="1" source="DVrZE9xDPVvh2_FHzCL8-90" target="DVrZE9xDPVvh2_FHzCL8-86" edge="1">
          <mxGeometry relative="1" as="geometry" />
        </mxCell>
        <mxCell id="DVrZE9xDPVvh2_FHzCL8-90" value="AttackAction" style="html=1;whiteSpace=wrap;" parent="1" vertex="1">
          <mxGeometry x="2190" y="1050" width="110" height="50" as="geometry" />
        </mxCell>
        <mxCell id="DVrZE9xDPVvh2_FHzCL8-104" style="edgeStyle=orthogonalEdgeStyle;rounded=0;orthogonalLoop=1;jettySize=auto;html=1;exitX=0.5;exitY=0;exitDx=0;exitDy=0;entryX=0.5;entryY=1;entryDx=0;entryDy=0;endArrow=classic;endFill=0;" parent="1" source="DVrZE9xDPVvh2_FHzCL8-101" target="DVrZE9xDPVvh2_FHzCL8-84" edge="1">
          <mxGeometry relative="1" as="geometry" />
        </mxCell>
        <mxCell id="DVrZE9xDPVvh2_FHzCL8-101" value="SpinningAttack" style="html=1;whiteSpace=wrap;" parent="1" vertex="1">
          <mxGeometry x="2838" y="1132" width="110" height="50" as="geometry" />
        </mxCell>
        <mxCell id="DVrZE9xDPVvh2_FHzCL8-103" style="edgeStyle=orthogonalEdgeStyle;rounded=0;orthogonalLoop=1;jettySize=auto;html=1;exitX=0.5;exitY=0;exitDx=0;exitDy=0;entryX=0.5;entryY=1;entryDx=0;entryDy=0;endArrow=classic;endFill=0;" parent="1" source="DVrZE9xDPVvh2_FHzCL8-102" target="DVrZE9xDPVvh2_FHzCL8-84" edge="1">
          <mxGeometry relative="1" as="geometry">
            <Array as="points">
              <mxPoint x="2745" y="1091" />
              <mxPoint x="2819" y="1091" />
            </Array>
          </mxGeometry>
        </mxCell>
        <mxCell id="DVrZE9xDPVvh2_FHzCL8-102" value="Slam" style="html=1;whiteSpace=wrap;" parent="1" vertex="1">
          <mxGeometry x="2690" y="1132" width="110" height="50" as="geometry" />
        </mxCell>
        <mxCell id="DVrZE9xDPVvh2_FHzCL8-122" value="weapons" style="shape=umlFrame;whiteSpace=wrap;html=1;pointerEvents=0;fillColor=#dae8fc;strokeColor=#6c8ebf;strokeWidth=5;" parent="1" vertex="1">
          <mxGeometry x="3351" y="-280" width="350" height="250" as="geometry" />
        </mxCell>
        <mxCell id="DVrZE9xDPVvh2_FHzCL8-128" style="edgeStyle=orthogonalEdgeStyle;rounded=0;orthogonalLoop=1;jettySize=auto;html=1;exitX=0.5;exitY=0;exitDx=0;exitDy=0;entryX=0.5;entryY=1;entryDx=0;entryDy=0;endArrow=block;endFill=0;dashed=1;" parent="1" source="DVrZE9xDPVvh2_FHzCL8-124" target="DVrZE9xDPVvh2_FHzCL8-126" edge="1">
          <mxGeometry relative="1" as="geometry" />
        </mxCell>
        <mxCell id="DVrZE9xDPVvh2_FHzCL8-124" value="&lt;i&gt;WeaponItem&lt;/i&gt;" style="html=1;whiteSpace=wrap;" parent="1" vertex="1">
          <mxGeometry x="3396" y="-120" width="110" height="50" as="geometry" />
        </mxCell>
        <mxCell id="DVrZE9xDPVvh2_FHzCL8-129" style="edgeStyle=orthogonalEdgeStyle;rounded=0;orthogonalLoop=1;jettySize=auto;html=1;exitX=0.5;exitY=0;exitDx=0;exitDy=0;entryX=0.5;entryY=1;entryDx=0;entryDy=0;endArrow=block;endFill=0;dashed=1;" parent="1" source="DVrZE9xDPVvh2_FHzCL8-125" target="DVrZE9xDPVvh2_FHzCL8-126" edge="1">
          <mxGeometry relative="1" as="geometry">
            <Array as="points">
              <mxPoint x="3660" y="838" />
              <mxPoint x="3660" y="-160" />
              <mxPoint x="3526" y="-160" />
            </Array>
          </mxGeometry>
        </mxCell>
        <mxCell id="rV41eUEQcJ1NYXQhh66D-24" style="edgeStyle=orthogonalEdgeStyle;rounded=0;orthogonalLoop=1;jettySize=auto;html=1;exitX=0.5;exitY=1;exitDx=0;exitDy=0;entryX=0.5;entryY=1;entryDx=0;entryDy=0;dashed=1;endArrow=open;endFill=0;" parent="1" source="DVrZE9xDPVvh2_FHzCL8-125" target="DVrZE9xDPVvh2_FHzCL8-102" edge="1">
          <mxGeometry relative="1" as="geometry">
            <Array as="points">
              <mxPoint x="3665" y="1400" />
              <mxPoint x="2745" y="1400" />
            </Array>
          </mxGeometry>
        </mxCell>
        <mxCell id="DVrZE9xDPVvh2_FHzCL8-125" value="GiantCrabClaw" style="html=1;whiteSpace=wrap;" parent="1" vertex="1">
          <mxGeometry x="3610" y="838" width="110" height="50" as="geometry" />
        </mxCell>
        <mxCell id="DVrZE9xDPVvh2_FHzCL8-126" value="&lt;i&gt;&amp;lt;&amp;lt;Interface&amp;gt;&amp;gt;&lt;br&gt;Weapon&lt;br&gt;&lt;/i&gt;" style="html=1;whiteSpace=wrap;" parent="1" vertex="1">
          <mxGeometry x="3466" y="-250" width="120" height="50" as="geometry" />
        </mxCell>
        <mxCell id="DVrZE9xDPVvh2_FHzCL8-134" style="edgeStyle=orthogonalEdgeStyle;rounded=0;orthogonalLoop=1;jettySize=auto;html=1;entryX=0.5;entryY=1;entryDx=0;entryDy=0;endArrow=block;endFill=0;exitX=0.5;exitY=0;exitDx=0;exitDy=0;" parent="1" source="E3ys_B2oXcTgp7oONCjZ-1" target="DVrZE9xDPVvh2_FHzCL8-124" edge="1">
          <mxGeometry relative="1" as="geometry">
            <mxPoint x="3451" y="838" as="sourcePoint" />
          </mxGeometry>
        </mxCell>
        <mxCell id="DVrZE9xDPVvh2_FHzCL8-144" style="edgeStyle=orthogonalEdgeStyle;rounded=0;orthogonalLoop=1;jettySize=auto;html=1;endArrow=open;endFill=0;dashed=1;entryX=0.5;entryY=1;entryDx=0;entryDy=0;exitX=0.5;exitY=1;exitDx=0;exitDy=0;" parent="1" source="GWkKmIc5PLOBVZ-B5JVU-1" target="DVrZE9xDPVvh2_FHzCL8-101" edge="1">
          <mxGeometry relative="1" as="geometry">
            <Array as="points">
              <mxPoint x="3451" y="1360" />
              <mxPoint x="2573" y="1360" />
            </Array>
            <mxPoint x="2570" y="1200" as="targetPoint" />
          </mxGeometry>
        </mxCell>
        <mxCell id="DVrZE9xDPVvh2_FHzCL8-149" value="enums" style="shape=umlFrame;whiteSpace=wrap;html=1;pointerEvents=0;fillColor=#dae8fc;strokeColor=#6c8ebf;strokeWidth=5;" parent="1" vertex="1">
          <mxGeometry x="870" y="279" width="377" height="271" as="geometry" />
        </mxCell>
        <mxCell id="DVrZE9xDPVvh2_FHzCL8-150" value="&amp;lt;&amp;lt;enumeration&amp;gt;&amp;gt;&lt;br&gt;Species" style="html=1;whiteSpace=wrap;" parent="1" vertex="1">
          <mxGeometry x="1078" y="380" width="110" height="50" as="geometry" />
        </mxCell>
        <mxCell id="DVrZE9xDPVvh2_FHzCL8-162" value="&lt;b&gt;&lt;font style=&quot;font-size: 30px;&quot;&gt;game&lt;/font&gt;&lt;/b&gt;" style="shape=umlFrame;whiteSpace=wrap;html=1;pointerEvents=0;strokeWidth=5;fillColor=#f8cecc;strokeColor=#b85450;width=160;height=60;" parent="1" vertex="1">
          <mxGeometry x="160" y="160" width="3680" height="1360" as="geometry" />
        </mxCell>
        <mxCell id="DVrZE9xDPVvh2_FHzCL8-163" value="&lt;b&gt;&lt;font style=&quot;font-size: 30px;&quot;&gt;Engine&lt;/font&gt;&lt;/b&gt;" style="shape=umlFrame;whiteSpace=wrap;html=1;pointerEvents=0;strokeWidth=5;fillColor=#f8cecc;strokeColor=#b85450;width=130;height=60;" parent="1" vertex="1">
          <mxGeometry x="160" y="-400" width="3680" height="480" as="geometry" />
        </mxCell>
        <mxCell id="nA44q0fjmFgXWdIEp-3O-6" style="edgeStyle=orthogonalEdgeStyle;rounded=0;orthogonalLoop=1;jettySize=auto;html=1;exitX=0.5;exitY=1;exitDx=0;exitDy=0;entryX=0.5;entryY=0;entryDx=0;entryDy=0;endArrow=open;endFill=0;" parent="1" source="nA44q0fjmFgXWdIEp-3O-5" target="DVrZE9xDPVvh2_FHzCL8-3" edge="1">
          <mxGeometry relative="1" as="geometry" />
        </mxCell>
        <mxCell id="nA44q0fjmFgXWdIEp-3O-7" value="Has" style="edgeLabel;html=1;align=center;verticalAlign=middle;resizable=0;points=[];" parent="nA44q0fjmFgXWdIEp-3O-6" vertex="1" connectable="0">
          <mxGeometry x="-0.252" y="-1" relative="1" as="geometry">
            <mxPoint x="1" y="6" as="offset" />
          </mxGeometry>
        </mxCell>
        <mxCell id="nA44q0fjmFgXWdIEp-3O-8" value="1" style="edgeLabel;html=1;align=center;verticalAlign=middle;resizable=0;points=[];" parent="nA44q0fjmFgXWdIEp-3O-6" vertex="1" connectable="0">
          <mxGeometry x="-0.8711" y="1" relative="1" as="geometry">
            <mxPoint x="11" y="6" as="offset" />
          </mxGeometry>
        </mxCell>
        <mxCell id="nA44q0fjmFgXWdIEp-3O-9" value="1" style="edgeLabel;html=1;align=center;verticalAlign=middle;resizable=0;points=[];" parent="nA44q0fjmFgXWdIEp-3O-6" vertex="1" connectable="0">
          <mxGeometry x="0.6125" relative="1" as="geometry">
            <mxPoint x="12" as="offset" />
          </mxGeometry>
        </mxCell>
        <mxCell id="nA44q0fjmFgXWdIEp-3O-5" value="Location" style="html=1;whiteSpace=wrap;" parent="1" vertex="1">
          <mxGeometry x="453" y="-300" width="110" height="50" as="geometry" />
        </mxCell>
        <mxCell id="nA44q0fjmFgXWdIEp-3O-36" value="weapons" style="shape=umlFrame;whiteSpace=wrap;html=1;pointerEvents=0;width=90;height=37;strokeWidth=5;fillColor=#dae8fc;strokeColor=#6c8ebf;" parent="1" vertex="1">
          <mxGeometry x="3300" y="600" width="500" height="440" as="geometry" />
        </mxCell>
        <mxCell id="GWkKmIc5PLOBVZ-B5JVU-1" value="Grossmesser" style="html=1;whiteSpace=wrap;" parent="1" vertex="1">
          <mxGeometry x="3395" y="838" width="110" height="50" as="geometry" />
        </mxCell>
        <mxCell id="JSlfss8V1tPt0fPpGnAS-12" style="edgeStyle=orthogonalEdgeStyle;rounded=0;orthogonalLoop=1;jettySize=auto;html=1;exitX=0.25;exitY=0;exitDx=0;exitDy=0;entryX=0.5;entryY=1;entryDx=0;entryDy=0;endArrow=open;endFill=0;" parent="1" source="DVrZE9xDPVvh2_FHzCL8-24" target="JSlfss8V1tPt0fPpGnAS-2" edge="1">
          <mxGeometry relative="1" as="geometry">
            <mxPoint x="1268" y="775" as="sourcePoint" />
            <Array as="points">
              <mxPoint x="1296" y="800" />
              <mxPoint x="983" y="800" />
            </Array>
          </mxGeometry>
        </mxCell>
        <mxCell id="JSlfss8V1tPt0fPpGnAS-14" value="Has" style="edgeLabel;html=1;align=center;verticalAlign=middle;resizable=0;points=[];" parent="JSlfss8V1tPt0fPpGnAS-12" vertex="1" connectable="0">
          <mxGeometry x="0.3409" y="1" relative="1" as="geometry">
            <mxPoint y="-39" as="offset" />
          </mxGeometry>
        </mxCell>
        <mxCell id="JSlfss8V1tPt0fPpGnAS-16" value="1..3" style="edgeLabel;html=1;align=center;verticalAlign=middle;resizable=0;points=[];" parent="JSlfss8V1tPt0fPpGnAS-12" vertex="1" connectable="0">
          <mxGeometry x="0.9302" y="1" relative="1" as="geometry">
            <mxPoint x="-22" y="-12" as="offset" />
          </mxGeometry>
        </mxCell>
        <mxCell id="JSlfss8V1tPt0fPpGnAS-17" value="1" style="edgeLabel;html=1;align=center;verticalAlign=middle;resizable=0;points=[];" parent="JSlfss8V1tPt0fPpGnAS-12" vertex="1" connectable="0">
          <mxGeometry x="-0.959" y="2" relative="1" as="geometry">
            <mxPoint x="5" y="-17" as="offset" />
          </mxGeometry>
        </mxCell>
        <mxCell id="JSlfss8V1tPt0fPpGnAS-2" value="&amp;lt;&amp;lt;enumeration&amp;gt;&amp;gt;&lt;br&gt;Status" style="html=1;whiteSpace=wrap;" parent="1" vertex="1">
          <mxGeometry x="928" y="380" width="110" height="50" as="geometry" />
        </mxCell>
        <mxCell id="rV41eUEQcJ1NYXQhh66D-3" style="edgeStyle=orthogonalEdgeStyle;rounded=0;orthogonalLoop=1;jettySize=auto;html=1;exitX=0.5;exitY=0;exitDx=0;exitDy=0;entryX=0.5;entryY=1;entryDx=0;entryDy=0;endArrow=block;endFill=0;" parent="1" source="rV41eUEQcJ1NYXQhh66D-1" target="DVrZE9xDPVvh2_FHzCL8-56" edge="1">
          <mxGeometry relative="1" as="geometry">
            <Array as="points">
              <mxPoint x="2385" y="680" />
              <mxPoint x="2499" y="680" />
            </Array>
          </mxGeometry>
        </mxCell>
        <mxCell id="rV41eUEQcJ1NYXQhh66D-1" value="DespawnAction" style="html=1;whiteSpace=wrap;" parent="1" vertex="1">
          <mxGeometry x="2330" y="1050" width="110" height="50" as="geometry" />
        </mxCell>
        <mxCell id="rV41eUEQcJ1NYXQhh66D-2" value="&lt;i&gt;&amp;lt;&amp;lt;Interface&amp;gt;&amp;gt;&lt;br&gt;AoECapable&lt;br&gt;&lt;/i&gt;" style="html=1;whiteSpace=wrap;" parent="1" vertex="1">
          <mxGeometry x="1520" y="870" width="110" height="50" as="geometry" />
        </mxCell>
        <mxCell id="rV41eUEQcJ1NYXQhh66D-17" value="standardactions" style="shape=umlFrame;whiteSpace=wrap;html=1;pointerEvents=0;width=102;height=30;fillColor=#dae8fc;strokeColor=#6c8ebf;strokeWidth=5;" parent="1" vertex="1">
          <mxGeometry x="1968" y="960" width="554" height="200" as="geometry" />
        </mxCell>
        <mxCell id="E3ys_B2oXcTgp7oONCjZ-2" value="" style="edgeStyle=orthogonalEdgeStyle;rounded=0;orthogonalLoop=1;jettySize=auto;html=1;entryX=0.5;entryY=1;entryDx=0;entryDy=0;endArrow=block;endFill=0;exitX=0.5;exitY=0;exitDx=0;exitDy=0;" parent="1" source="GWkKmIc5PLOBVZ-B5JVU-1" target="E3ys_B2oXcTgp7oONCjZ-1" edge="1">
          <mxGeometry relative="1" as="geometry">
            <mxPoint x="3450" y="838" as="sourcePoint" />
            <mxPoint x="3451" y="-70" as="targetPoint" />
          </mxGeometry>
        </mxCell>
        <mxCell id="E3ys_B2oXcTgp7oONCjZ-1" value="&lt;i&gt;TradableWeapon&lt;/i&gt;" style="html=1;whiteSpace=wrap;" parent="1" vertex="1">
          <mxGeometry x="3395" y="730" width="110" height="50" as="geometry" />
        </mxCell>
      </root>
    </mxGraphModel>
  </diagram>
</mxfile>
